<mxfile host="py-mxgraph"><diagram id="idunno" name="Page-1"><mxGraphModel><root><mxCell id="0" /><mxCell id="1" parent="0" /><mxCell id="idunno-0" parent="1" style="ellipse;whiteSpace=wrap;html=1;aspect=fixed;" vertex="1"><mxGeometry x="100" y="200" width="400" height="300" as="geometry" /></mxCell><mxCell id="idunno-1" parent="1" style="ellipse;whiteSpace=wrap;html=1;aspect=fixed;" vertex="1"><mxGeometry x="400" y="200" width="400" height="300" as="geometry" /></mxCell></root></mxGraphModel></diagram></mxfile>
